<svg width="100%" height="100%" id="svg" viewBox="0 0 1440 690" preserveAspectRatio="xMidYMid slice" xmlns="http://www.w3.org/2000/svg" class="transition duration-300 ease-in-out delay-150"><style>
          .path-0{
            animation: pathAnim-0 4s ease-in-out 0s infinite normal;
          }
          @keyframes pathAnim-0{
            0%, 100% {
              transform: translateY(0px);
            }
            50% {
              transform: translateY(6px);
            }
          }
        </style><defs><linearGradient id="gradient" x1="0%" y1="46%" x2="100%" y2="54%"><stop offset="5%" stop-color="#fcb900"></stop><stop offset="95%" stop-color="#0693e3"></stop></linearGradient></defs><path d="M 0,700 L 0,105 C 50.00576277459092,113.55494461920749 100.01152554918184,122.10988923841498 150,132 C 199.98847445081816,141.89011076158502 249.95966057786353,153.11538766554762 302,143 C 354.04033942213647,132.88461233445238 408.149832139364,101.42856009939463 454,84 C 499.850167860636,66.57143990060537 537.4410108646806,63.17037193687382 585,65 C 632.5589891353194,66.82962806312618 690.0861244019138,73.88995215311004 733,82 C 775.9138755980862,90.11004784688996 804.2144915276638,99.26981945068599 846,112 C 887.7855084723362,124.73018054931401 943.0559094874304,141.030770044146 998,134 C 1052.9440905125696,126.96922995585399 1107.5618705226148,96.60710037272993 1159,80 C 1210.4381294773852,63.39289962727007 1258.6966084221099,60.54082846493431 1305,67 C 1351.3033915778901,73.45917153506569 1395.651695788945,89.22958576753285 1440,105 L 1440,700 L 0,700 Z" stroke="none" stroke-width="0" fill="url(#gradient)" fill-opacity="0.265" class="transition-all duration-300 ease-in-out delay-150 path-0"></path><style>
          .path-1{
            animation: pathAnim-1 4.6s ease-in-out -1s infinite reverse;
          }
          @keyframes pathAnim-1{
            0%, 100% {
              transform: translateY(0px);
            }
            50% {
              transform: translateY(8px);
            }
          }
        </style><defs><linearGradient id="gradient" x1="0%" y1="46%" x2="100%" y2="54%"><stop offset="5%" stop-color="#fcb900"></stop><stop offset="95%" stop-color="#0693e3"></stop></linearGradient></defs><path d="M 0,700 L 0,245 C 44.42019350233947,239.96081048930714 88.84038700467895,234.92162097861427 136,247 C 183.15961299532105,259.07837902138573 233.0586454836237,288.27432657484997 281,274 C 328.9413545163763,259.72567342515003 374.92503106082637,201.9810727219858 425,207 C 475.07496893917363,212.0189272780142 529.2412302730709,279.8013825372069 574,294 C 618.7587697269291,308.1986174627931 654.11004784689,268.81339712918657 705,242 C 755.88995215311,215.1866028708134 822.3185783393691,200.94502894604668 879,205 C 935.6814216606309,209.05497105395332 982.6156387956332,231.40648708662667 1031,252 C 1079.3843612043668,272.59351291337333 1129.218866478099,291.4290227074467 1178,293 C 1226.781133521901,294.5709772925533 1274.5088952919716,278.8774220835867 1318,268 C 1361.4911047080284,257.1225779164133 1400.7455523540143,251.06128895820666 1440,245 L 1440,700 L 0,700 Z" stroke="none" stroke-width="0" fill="url(#gradient)" fill-opacity="0.4" class="transition-all duration-300 ease-in-out delay-150 path-1"></path><style>
          .path-2{
            animation: pathAnim-2 5.2s ease-in-out -2s infinite normal;
          }
          @keyframes pathAnim-2{
            0%, 100% {
              transform: translateY(0px);
            }
            50% {
              transform: translateY(7px);
            }
          }
        </style><defs><linearGradient id="gradient" x1="0%" y1="46%" x2="100%" y2="54%"><stop offset="5%" stop-color="#fcb900"></stop><stop offset="95%" stop-color="#0693e3"></stop></linearGradient></defs><path d="M 0,700 L 0,385 C 64.22378334082318,401.88650241877923 128.44756668164635,418.77300483755846 170,408 C 211.55243331835365,397.22699516244154 230.43351661423776,358.7944830685453 272,349 C 313.56648338576224,339.2055169314547 377.81836686140264,358.0490628882604 438,368 C 498.18163313859736,377.9509371117396 554.2930159401518,379.0092653784134 595,385 C 635.7069840598482,390.9907346215866 661.0095693779904,401.9138755980861 699,394 C 736.9904306220096,386.0861244019139 787.6687065478866,359.3352322292421 847,366 C 906.3312934521134,372.6647677707579 974.3156044304635,412.74519548494544 1031,431 C 1087.6843955695365,449.25480451505456 1133.0688757302598,445.6839858309762 1168,432 C 1202.9311242697402,418.3160141690238 1227.4088926484972,394.5188611911497 1271,385 C 1314.5911073515028,375.4811388088503 1377.2955536757513,380.2405694044252 1440,385 L 1440,700 L 0,700 Z" stroke="none" stroke-width="0" fill="url(#gradient)" fill-opacity="0.53" class="transition-all duration-300 ease-in-out delay-150 path-2"></path><style>
          .path-3{
            animation: pathAnim-3 5.8s ease-in-out -0.5s infinite reverse;
          }
          @keyframes pathAnim-3{
            0%, 100% {
              transform: translateY(0px);
            }
            50% {
              transform: translateY(9px);
            }
          }
        </style><defs><linearGradient id="gradient" x1="0%" y1="46%" x2="100%" y2="54%"><stop offset="5%" stop-color="#fcb900"></stop><stop offset="95%" stop-color="#0693e3"></stop></linearGradient></defs><path d="M 0,700 L 0,525 C 33.28038013164503,511.37220122128525 66.56076026329006,497.7444024425705 121,491 C 175.43923973670994,484.2555975574295 251.03733907848482,484.3945914510032 301,500 C 350.9626609215152,515.6054085489968 375.28988342277086,546.6772317534168 411,538 C 446.71011657722914,529.3227682465832 493.80312723043176,480.89648153533 549,480 C 604.1968727695682,479.10351846467 667.4976076555024,525.7368421052631 717,545 C 766.5023923444976,564.2631578947369 802.2064421475586,556.1561500436173 848,559 C 893.7935578524414,561.8438499563827 949.6766237542629,575.6385577202675 1007,572 C 1064.323376245737,568.3614422797325 1123.0870628353905,547.2896190753125 1174,549 C 1224.9129371646095,550.7103809246875 1267.9751249041742,575.2029659784821 1311,575 C 1354.0248750958258,574.7970340215179 1397.012437547913,549.898517010759 1440,525 L 1440,700 L 0,700 Z" stroke="none" stroke-width="0" fill="url(#gradient)" fill-opacity="1" class="transition-all duration-300 ease-in-out delay-150 path-3"></path></svg>